<svg width="425" height="445" viewBox="0 0 425 445" fill="none" xmlns="http://www.w3.org/2000/svg">
<path d="M175.721 10.5668L154.308 31.9759C147.266 39.3949 143.744 48.0598 143.744 57.9508C143.744 68.0458 147.265 76.6078 154.308 83.6508L238.247 167.589L37.255 167.589C27.355 167.589 18.791 171.21 11.558 178.444C4.326 185.678 0.707997 194.241 0.707997 204.137L0.707999 240.682C0.707999 250.579 4.329 259.146 11.558 266.375C18.791 273.611 27.355 277.225 37.255 277.225L238.247 277.225L154.308 361.164C147.266 368.206 143.744 376.77 143.744 386.861C143.744 396.757 147.265 405.42 154.308 412.84L175.721 433.968C182.948 441.204 191.615 444.819 201.7 444.819C211.982 444.819 220.548 441.2 227.398 433.971L413.544 248.107C420.59 241.062 424.111 232.498 424.111 222.41C424.111 212.513 420.59 203.852 413.544 196.433L227.398 10.5678C220.355 3.52483 211.79 0.000845266 201.7 0.000845707C191.805 -0.000153861 183.145 3.52383 175.721 10.5668Z" fill="black"/>
</svg>
