<svg width="65" height="42" viewBox="0 0 65 42" fill="none" xmlns="http://www.w3.org/2000/svg">
<path d="M32 39L4 20L31 1L59 20L32 39ZM7 20L32 37L56 20L31 3L7 20Z" fill="black"/>
<path d="M1 12H63V27H1V12Z" fill="#EED05D"/>
<path d="M63 28H0V11H63V28ZM1 26H62V12H1V26Z" fill="black"/>
<path d="M4 16H7L8 20L10 16H13L10 24H6L4 16ZM17 16V24H14V16H17ZM18 16H23C24.9719 16 26 16.4431 26 18C26 19.231 25.1685 19.7103 24 20C24.6938 20.1086 25.7079 20.5655 26 21C26.4747 21.869 25.6713 23.2034 26 24H23C22.8539 23.4207 23.2556 21.5069 23 21C22.8174 20.6379 22.3652 21 22 21H21V24H18V16ZM21 19H22C22.6573 19 23 18.8328 23 18C23 17.2759 22.6573 17 22 17H21V19ZM27 16H32L33 20L34 16H39V24H36V17L34 24H31L30 17V24H27V16ZM42 16H46L49 24H46L45 22H43L42 24H39L42 16ZM43 20H45L44 17L43 20ZM53 19L55 16H58L55 19L58 24H55L53 20V24H49V16H53V19Z" fill="black"/>
</svg>
